<svg xmlns="http://www.w3.org/2000/svg" version="1.1" xmlns:xlink="http://www.w3.org/1999/xlink" xmlns:svgjs="http://svgjs.dev/svgjs" width="2000" height="505" viewBox="0 0 2000 505"><g transform="matrix(1,0,0,1,-1.2121212121212466,0.9724046696478297)"><svg viewBox="0 0 396 100" data-background-color="#ffffff" preserveAspectRatio="xMidYMid meet" height="505" width="2000" xmlns="http://www.w3.org/2000/svg" xmlns:xlink="http://www.w3.org/1999/xlink"><g id="tight-bounds" transform="matrix(1,0,0,1,0.2400000000000091,-0.1925553801282831)"><svg viewBox="0 0 395.52 100.38511076025657" height="100.38511076025657" width="395.52"><g><svg viewBox="0 0 589.5839207842864 149.6395812864" height="100.38511076025657" width="395.52"><g transform="matrix(1,0,0,1,0,28.1484306432)"><svg viewBox="0 0 395.52 93.34271999999999" height="93.34271999999999" width="395.52"><g id="textblocktransform"><svg viewBox="0 0 395.52 93.34271999999999" height="93.34271999999999" width="395.52" id="textblock"><g><svg viewBox="0 0 395.52 93.34271999999999" height="93.34271999999999" width="395.52"><g transform="matrix(1,0,0,1,0,0)"><svg width="395.52" viewBox="4.49 -36.01 152.57999999999998 36.01" height="93.34271999999999" data-palette-color="#000000"><path d="M4.49-5L4.49-30Q4.49-31.03 4.88-31.95 5.27-32.86 5.96-33.53 6.64-34.2 7.56-34.61 8.47-35.01 9.5-35.01L9.5-35.01 28.49-35.01Q29.52-35.01 30.43-34.61 31.35-34.2 32.03-33.53 32.71-32.86 33.11-31.95 33.5-31.03 33.5-30L33.5-30 33.5-25.49 28.49-25.49 28.49-30 9.5-30 9.5-5 28.49-5 28.49-9.5 33.5-9.5 33.5-5Q33.5-3.98 33.11-3.06 32.71-2.15 32.03-1.46 31.35-0.78 30.43-0.39 29.52 0 28.49 0L28.49 0 9.5 0Q8.47 0 7.56-0.39 6.64-0.78 5.96-1.46 5.27-2.15 4.88-3.06 4.49-3.98 4.49-5L4.49-5ZM64.01-21.19L64.01 0 59.2 0 59.2-21.19 45.8-21.19 45.8 0 41.01 0 41.01-36.01 45.8-36.01 45.8-21.41Q45.85-22.36 46.24-23.21 46.63-24.05 47.28-24.67 47.92-25.29 48.78-25.65 49.63-26 50.61-26L50.61-26 59.2-26Q60.2-26 61.08-25.62 61.96-25.24 62.61-24.6 63.25-23.95 63.63-23.07 64.01-22.19 64.01-21.19L64.01-21.19ZM72.02-4.81L72.02-11.35Q72.02-12.35 72.39-13.22 72.77-14.09 73.42-14.75 74.07-15.41 74.95-15.78 75.83-16.16 76.8-16.16L76.8-16.16 89.2-16.16 89.2-21.19 73.51-21.19 73.51-26 89.2-26Q90.2-26 91.08-25.62 91.96-25.24 92.61-24.6 93.26-23.95 93.64-23.07 94.01-22.19 94.01-21.19L94.01-21.19 94.01 0 89.2 0 89.2-4.39Q89.13-3.49 88.72-2.69 88.3-1.88 87.65-1.28 87.01-0.68 86.18-0.34 85.35 0 84.42 0L84.42 0 76.8 0Q75.83 0 74.95-0.38 74.07-0.76 73.42-1.4 72.77-2.05 72.39-2.93 72.02-3.81 72.02-4.81L72.02-4.81ZM76.8-11.35L76.8-4.81 89.2-4.81 89.2-11.35 76.8-11.35ZM100.51-21.19L100.51-26 106.85-26 106.85-34.01 111.66-34.01 111.66-26 120.21-26 120.21-21.19 111.66-21.19 111.66-4.81 120.21-4.81 120.21 0 111.66 0Q110.69 0 109.81-0.38 108.93-0.76 108.27-1.4 107.61-2.05 107.23-2.93 106.85-3.81 106.85-4.81L106.85-4.81 106.85-21.19 100.51-21.19ZM125.97-35.01L132-35.01 141.35-21.9 150.75-35.01 156.8-35.01 144.4-17.65 157.07 0 151.02 0 141.35-13.45 131.75 0 125.7 0 138.37-17.65 125.97-35.01Z" opacity="1" transform="matrix(1,0,0,1,0,0)" fill="#000000" class="wordmark-text-0" data-fill-palette-color="primary" id="text-0"></path></svg></g></svg></g></svg></g></svg></g><g transform="matrix(1,0,0,1,417.55597596672,0)"><svg viewBox="0 0 172.0279448175664 149.6395812864" height="149.6395812864" width="172.0279448175664"><g><svg xmlns="http://www.w3.org/2000/svg" xmlns:xlink="http://www.w3.org/1999/xlink" version="1.1" x="0" y="0" viewBox="7.786000000000006 13.361 84.45763403854137 73.46600000000001" enable-background="new 0 0 100 100" xml:space="preserve" height="149.6395812864" width="172.0279448175664" class="icon-icon-0" data-fill-palette-color="accent" id="icon-0"><path d="M91.609 85.407c-4.207-5.085-3.187-12-2.187-15.735 0.942-2.331 1.472-4.812 1.472-7.406 0-4.633-1.631-8.939-4.414-12.549C83.77 66.564 67.068 79.609 46.761 79.93c4.665 3.282 10.648 5.26 17.174 5.26 4.771 0 9.237-1.063 13.119-2.91 5.959 3.998 13.379 4.547 13.379 4.547C93.641 86.825 91.609 85.407 91.609 85.407z" fill="#000000" data-fill-palette-color="accent"></path><path d="M83.426 44.923c0-17.401-16.789-31.562-37.421-31.562-20.635 0-37.422 14.161-37.422 31.562 0 3.4 0.673 6.804 2.003 10.106 1.544 5.688 3.072 15.9-2.8 23.798 1.994-0.214 10.954-1.419 18.195-6.271l0.823-0.55 0.894 0.423c5.578 2.651 11.908 4.057 18.307 4.057C66.637 76.486 83.426 62.324 83.426 44.923z" fill="#000000" data-fill-palette-color="accent"></path></svg></g></svg></g></svg></g><defs></defs></svg><rect width="395.52" height="100.38511076025657" fill="none" stroke="none" visibility="hidden"></rect></g></svg></g></svg>